<svg width="21" height="20" viewBox="0 0 21 20" fill="none" xmlns="http://www.w3.org/2000/svg">
<path d="M13.8333 2.5C14.0374 2.50003 14.2344 2.57496 14.387 2.7106C14.5395 2.84623 14.637 3.03312 14.6608 3.23583L14.6667 3.33333V4.16667H16.3333C16.7538 4.16653 17.1588 4.32534 17.4671 4.61125C17.7754 4.89716 17.9643 5.28904 17.9958 5.70833L18 5.83333V15.8333C18.0001 16.2538 17.8413 16.6588 17.5554 16.9671C17.2695 17.2754 16.8776 17.4643 16.4583 17.4958L16.3333 17.5H4.66667C4.24619 17.5001 3.84119 17.3413 3.53288 17.0554C3.22456 16.7695 3.0357 16.3776 3.00417 15.9583L3 15.8333V5.83333C2.99987 5.41285 3.15867 5.00786 3.44458 4.69954C3.73049 4.39123 4.12237 4.20237 4.54167 4.17083L4.66667 4.16667H6.33333V3.33333C6.33357 3.12093 6.4149 2.91664 6.56071 2.76219C6.70651 2.60775 6.90579 2.5148 7.11783 2.50236C7.32986 2.48991 7.53865 2.5589 7.70153 2.69522C7.8644 2.83155 7.96908 3.02492 7.99417 3.23583L8 3.33333V4.16667H13V3.33333C13 3.11232 13.0878 2.90036 13.2441 2.74408C13.4004 2.5878 13.6123 2.5 13.8333 2.5ZM16.3333 10H4.66667V15.8333H16.3333V10ZM16.3333 5.83333H4.66667V8.33333H16.3333V5.83333Z" fill="black"/>
</svg>
