<svg width="368" height="45" viewBox="0 0 368 45" fill="none" xmlns="http://www.w3.org/2000/svg">
<path d="M269.115 1.5957V10.1224H276.906V35.7266H268.598V10.1224H251.977V35.7085H269.115V44.2352H243.669V1.5957H269.115Z" fill="white"/>
<path d="M194.033 1.5957V10.1224H201.824V35.7507H193.511V10.1224H176.895V35.7085H194.033V44.2352H168.587V1.5957H194.033Z" fill="white"/>
<path d="M27.2413 1.5957V10.1224H35.0329V35.9975H26.7191V10.1224H10.1033V35.7085H27.2413V44.2352H1.79541V1.5957H27.2413Z" fill="white"/>
<path d="M291.574 35.7266H283.278V44.2412H291.574V35.7266Z" fill="white"/>
<mask id="mask0_228_1098" style="mask-type:luminance" maskUnits="userSpaceOnUse" x="0" y="0" width="368" height="45">
<path d="M367.947 0H0V45H367.947V0Z" fill="white"/>
</mask>
<g mask="url(#mask0_228_1098)">
<path d="M297.846 36.9733C314.914 24.0749 319.913 19.649 319.913 14.386C319.913 10.6646 316.598 8.80391 313.16 8.80391C308.407 8.80391 304.781 10.7308 301.971 13.7417L296.907 7.70797C300.973 2.89664 307.157 0.716797 312.972 0.716797C321.849 0.716797 328.913 5.84727 328.913 14.386C328.913 21.7023 323.034 28.0492 312.221 36.1363H329.224V44.1572H297.84V36.9733H297.846Z" fill="white"/>
</g>
<mask id="mask1_228_1098" style="mask-type:luminance" maskUnits="userSpaceOnUse" x="0" y="0" width="368" height="45">
<path d="M367.947 0H0V45H367.947V0Z" fill="white"/>
</mask>
<g mask="url(#mask1_228_1098)">
<path d="M353.925 35.305H333.982V28.1152L350.551 1.36084H362.802V27.2842H368.176V35.305H362.802V44.1569H353.925V35.305ZM342.671 27.2842H353.925V9.44795L342.671 27.2842Z" fill="white"/>
</g>
<mask id="mask2_228_1098" style="mask-type:luminance" maskUnits="userSpaceOnUse" x="0" y="0" width="368" height="45">
<path d="M367.947 0H0V45H367.947V0Z" fill="white"/>
</mask>
<g mask="url(#mask2_228_1098)">
<path d="M208.067 1.54736H237.444V9.53211H216.909V18.5345H237.004V26.5193H216.909V36.16H237.444V44.1447H208.067V1.54736Z" fill="white"/>
</g>
<mask id="mask3_228_1098" style="mask-type:luminance" maskUnits="userSpaceOnUse" x="0" y="0" width="368" height="45">
<path d="M367.947 0H0V45H367.947V0Z" fill="white"/>
</mask>
<g mask="url(#mask3_228_1098)">
<path d="M141.093 0.849121C153.661 0.849121 162.814 10.0623 162.814 22.9246C162.814 35.7869 153.667 45.0001 141.093 45.0001C128.585 45.0001 119.438 35.7869 119.438 22.9246C119.438 10.0623 128.585 0.849121 141.093 0.849121ZM141.093 8.91215C133.437 8.91215 128.52 14.9278 128.52 22.9246C128.52 30.8612 133.437 36.937 141.093 36.937C148.744 36.937 153.725 30.8551 153.725 22.9246C153.725 14.9278 148.744 8.91215 141.093 8.91215Z" fill="white"/>
</g>
<mask id="mask4_228_1098" style="mask-type:luminance" maskUnits="userSpaceOnUse" x="0" y="0" width="368" height="45">
<path d="M367.947 0H0V45H367.947V0Z" fill="white"/>
</mask>
<g mask="url(#mask4_228_1098)">
<path d="M75.7334 22.9246C75.7334 9.80938 85.379 0.849121 97.8232 0.849121C106.97 0.849121 112.262 5.96755 115.184 11.2787L107.592 15.1205C105.85 11.6641 102.118 8.91215 97.8232 8.91215C90.2957 8.91215 84.8158 14.8616 84.8158 22.9246C84.8158 30.9876 90.2898 36.937 97.8232 36.937C102.118 36.937 105.85 34.2514 107.592 30.7287L115.184 34.5043C112.198 39.8154 106.97 45.0001 97.8232 45.0001C85.379 45.0001 75.7334 36.0458 75.7334 22.9246Z" fill="white"/>
</g>
<mask id="mask5_228_1098" style="mask-type:luminance" maskUnits="userSpaceOnUse" x="0" y="0" width="368" height="45">
<path d="M367.947 0H0V45H367.947V0Z" fill="white"/>
</mask>
<g mask="url(#mask5_228_1098)">
<path d="M41.3105 1.55371H70.6815V9.5505H50.1465V18.577H70.2474V26.5738H50.1465V36.2326H70.6815V44.2354H41.3105V1.55371Z" fill="white"/>
</g>
</svg>
