<svg width="99" height="31" viewBox="0 0 99 31" fill="none" xmlns="http://www.w3.org/2000/svg">
<path fill-rule="evenodd" clip-rule="evenodd" d="M0.0435791 0.182129H6.71025V0.182144H20.0436V6.84881H6.71025L6.71024 23.5155L20.0436 23.5155V30.1821H6.71024L6.71025 30.1821H0.0435791V0.182129ZM20.0436 23.5155H26.7102V6.84881H20.0436V23.5155ZM38.3769 23.5155H31.7102V30.1821H38.3769V23.5155ZM43.0436 16.8488H49.7102V11.8488H63.0436V6.84881H49.7102V0.182144H69.7102L69.7102 6.84881L69.7102 11.8488L69.7102 13.5155L69.7102 18.5155H49.7102V23.5155L69.7102 23.5155V30.1821H43.0436V23.5155V16.8488ZM80.2102 0.182144V15.1821L91.7936 15.1821V0.182144L98.4602 0.182144V30.1821H91.7936V21.8488L80.1894 21.8488V15.1821L73.5436 15.1821V0.182144L80.2102 0.182144Z" fill="white"/>
</svg>
